<svg xmlns="http://www.w3.org/2000/svg" viewBox="0 0 24 17.96"><title>little-cloudy-line</title><g id="레이어_2" data-name="레이어 2"><g id="Little_Cloudy_Line" data-name="Little Cloudy Line"><path d="M11.92,8a4.43,4.43,0,0,1,4.36,3.79l.25,1.75,1.77,0h.11A1.68,1.68,0,0,1,20,15.21a1.54,1.54,0,0,1-.19.75H2.63A2.51,2.51,0,0,1,2,14.29a2.59,2.59,0,0,1,2.58-2.58,2.54,2.54,0,0,1,.8.15l1.75.57.72-1.69A4.41,4.41,0,0,1,11.92,8m0-2A6.41,6.41,0,0,0,6,10a4.52,4.52,0,0,0-1.43-.25A4.57,4.57,0,0,0,1.86,18H20.74a3.66,3.66,0,0,0-2.41-6.42h-.07A6.41,6.41,0,0,0,11.92,6ZM17,6a1,1,0,1,1-1,1,1,1,0,0,1,1-1m0-2a3,3,0,1,0,3,3,3,3,0,0,0-3-3Zm1-4H16V3h2Zm6,8V6H21V8ZM12.76,1.34,11.34,2.76l2.12,2.12,1.42-1.42Zm7.78,7.78-1.42,1.42,2.12,2.12,1.42-1.42Zm2.12-6.36L21.24,1.34,19.12,3.46l1.42,1.42ZM18,0H16V3h2Zm6,8V6H21V8ZM12.76,1.34,11.34,2.76l2.12,2.12,1.42-1.42Zm7.78,7.78-1.42,1.42,2.12,2.12,1.42-1.42Zm2.12-6.36L21.24,1.34,19.12,3.46l1.42,1.42Z"/></g></g></svg>