<svg xmlns="http://www.w3.org/2000/svg" viewBox="0 0 24 19"><title>rainny-line</title><g id="레이어_2" data-name="레이어 2"><g id="Rainny_Line" data-name="Rainny Line"><path d="M24,10a4,4,0,0,0-4-4h-.08A7,7,0,0,0,6.55,4.27,4.94,4.94,0,0,0,5,4a5,5,0,0,0-3,9H8.16a5.54,5.54,0,0,0-.36,1.8,4.2,4.2,0,0,0,8.4,0,5.54,5.54,0,0,0-.36-1.8h6.78A4,4,0,0,0,24,10ZM8.56,12a.61.61,0,0,0,0-.12A.61.61,0,0,1,8.56,12ZM12,17a2.21,2.21,0,0,1-2.2-2.2c0-1.14,1-3,2.2-4.6,1.14,1.59,2.2,3.47,2.2,4.6A2.21,2.21,0,0,1,12,17Zm3.39-5.08a.61.61,0,0,0,0,.12A.61.61,0,0,1,15.39,11.92ZM21.72,11H14.9A26.36,26.36,0,0,0,12,7a26.36,26.36,0,0,0-2.9,4H2.78A3,3,0,0,1,2,9,3,3,0,0,1,5,6a3.17,3.17,0,0,1,.93.17l1.75.57.71-1.69a5,5,0,0,1,9.55,1.24L18.19,8,20,8h.12A2,2,0,0,1,22,10,1.87,1.87,0,0,1,21.72,11Z"/></g></g></svg>