<svg xmlns="http://www.w3.org/2000/svg" viewBox="0 0 24 20.5"><title>snow-line</title><g id="레이어_2" data-name="레이어 2"><g id="Snow_Line" data-name="Snow Line"><path d="M20,6h-.08A7,7,0,0,0,6.55,4.27,4.94,4.94,0,0,0,5,4a5,5,0,0,0-3,9H4.42a3,3,0,0,0,5.16,0h2.84a3,3,0,0,0,5.16,0h5A4,4,0,0,0,20,6ZM7,12.5a1,1,0,0,1-1-1,1,1,0,0,1,.15-.5,1,1,0,0,1,1.7,0,1,1,0,0,1,.15.5A1,1,0,0,1,7,12.5Zm8,0a1,1,0,0,1-1-1,1,1,0,0,1,.15-.5,1,1,0,0,1,1.7,0,1,1,0,0,1,.15.5A1,1,0,0,1,15,12.5ZM21.72,11H18a3,3,0,0,0-5.9,0H10a3,3,0,0,0-5.9,0H2.78A3,3,0,0,1,2,9,3,3,0,0,1,5,6a3.17,3.17,0,0,1,.93.17l1.75.57.71-1.69a5,5,0,0,1,9.55,1.24L18.19,8,20,8h.12A2,2,0,0,1,22,10,1.87,1.87,0,0,1,21.72,11Z"/><path d="M11,14.5a3,3,0,1,0,3,3A3,3,0,0,0,11,14.5Zm0,4a1,1,0,1,1,1-1A1,1,0,0,1,11,18.5Z"/><path d="M19,14.5a3,3,0,1,0,3,3A3,3,0,0,0,19,14.5Zm0,4a1,1,0,1,1,1-1A1,1,0,0,1,19,18.5Z"/></g></g></svg>