<svg xmlns="http://www.w3.org/2000/svg" viewBox="0 0 24 24"><title>sunny-line</title><g id="레이어_2" data-name="레이어 2"><g id="Sunny_Line" data-name="Sunny Line"><rect x="11" width="2" height="4"/><rect x="18.07" y="2.93" width="2" height="4" transform="translate(29.07 21.9) rotate(-135)"/><rect x="3.93" y="2.93" width="2" height="4" transform="translate(-2.04 4.93) rotate(-45)"/><rect y="11" width="4" height="2"/><rect x="20" y="11" width="4" height="2"/><rect x="11" y="20" width="2" height="4"/><rect x="2.93" y="18.07" width="4" height="2" transform="translate(-12.04 9.07) rotate(-45)"/><rect x="18.07" y="17.07" width="2" height="4" transform="translate(-7.9 19.07) rotate(-45)"/><path d="M12,6a6,6,0,1,0,6,6A6,6,0,0,0,12,6Zm0,10a4,4,0,1,1,4-4A4,4,0,0,1,12,16Z"/></g></g></svg>